<?xml version="1.0" encoding="UTF-8" standalone="no"?>
<!-- Generator: Adobe Illustrator 27.5.0, SVG Export Plug-In . SVG Version: 6.00 Build 0)  -->

<svg
   version="1.1"
   id="Capa_1"
   x="0px"
   y="0px"
   viewBox="0 0 256 256"
   xml:space="preserve"
   sodipodi:docname="icon.svg"
   width="256"
   height="256"
   inkscape:export-filename="icon.png"
   inkscape:export-xdpi="96"
   inkscape:export-ydpi="96"
   inkscape:version="1.3.2 (091e20e, 2023-11-25, custom)"
   xmlns:inkscape="http://www.inkscape.org/namespaces/inkscape"
   xmlns:sodipodi="http://sodipodi.sourceforge.net/DTD/sodipodi-0.dtd"
   xmlns="http://www.w3.org/2000/svg"
   xmlns:svg="http://www.w3.org/2000/svg"><defs
   id="defs25" /><sodipodi:namedview
   id="namedview25"
   pagecolor="#ffffff"
   bordercolor="#666666"
   borderopacity="1.0"
   inkscape:showpageshadow="2"
   inkscape:pageopacity="0.0"
   inkscape:pagecheckerboard="0"
   inkscape:deskcolor="#d1d1d1"
   inkscape:zoom="0.70405278"
   inkscape:cx="450.25033"
   inkscape:cy="164.0502"
   inkscape:window-width="1858"
   inkscape:window-height="1057"
   inkscape:window-x="54"
   inkscape:window-y="-8"
   inkscape:window-maximized="1"
   inkscape:current-layer="Capa_1" />



















<path
   id="path1"
   style="fill:#d8a473;stroke-width:0.241637"
   d="M 0 70.103516 L 0 216 C 0 238.15998 17.840022 256 40 256 L 216 256 C 238.15998 256 256 238.15998 256 216 L 256 78.052734 C 255.7644 78.268032 255.53391 78.489276 255.29688 78.703125 C 250.74203 82.817476 245.9766 86.68695 241.03125 90.308594 L 241.03125 140.38086 C 241.03125 140.89554 240.61039 141.31641 240.0957 141.31641 L 163.16406 141.31641 C 162.64961 141.31641 162.22852 140.8953 162.22852 140.38086 L 162.22852 124.09766 C 147.72959 126.79286 132.92803 127.87134 118.20703 127.21094 C 93.252988 126.09144 68.189394 120.05007 45.919922 108.60156 C 31.465945 101.17076 18.084947 91.204255 7.2226562 79.085938 C 4.6550256 76.221576 2.2426294 73.223286 0 70.103516 z " /><path
   style="fill:#513720;stroke-width:0.241637"
   d="m 63.898935,192.26318 h -39.931979 c -2.178358,0.007 -3.933368,1.76177 -3.939893,3.94013 v 37.83505 c 0.0065,2.17836 1.761535,3.93337 3.939893,3.9399 h 39.931979 c 2.178358,-0.007 3.933369,-1.76178 3.939893,-3.9399 v -37.83505 c -0.0065,-2.17836 -1.761535,-3.93337 -3.939893,-3.94013 z"
   id="path2" /><path
   style="fill:#513720;stroke-width:0.241637"
   d="m 64.415313,234.03836 c -4.83e-4,0.14064 -0.05413,0.2617 -0.153197,0.36318 c -0.101488,0.0991 -0.222548,0.15272 -0.363181,0.1532 h -39.931979 c -0.140874,0 -0.261935,-0.0541 -0.36318,-0.1532 c -0.09907,-0.10148 -0.152715,-0.2223 -0.153198,-0.36318 v -37.83505 c 4.83e-4,-0.14087 0.05437,-0.26193 0.153198,-0.36342 c 0.101487,-0.0988 0.222547,-0.15272 0.36318,-0.1532 h 39.931979 c 0.140874,0 0.261935,0.0544 0.363181,0.1532 c 0.09907,0.10149 0.152714,0.22255 0.153197,0.36342 z"
   id="path3" /><path
   style="fill:#513720;stroke-width:0.241637"
   d="m 120.77329,192.26318 h -39.93197 c -2.178359,0.007 -3.933611,1.76177 -3.939893,3.94013 v 37.83505 c 0.0063,2.17836 1.761534,3.93337 3.939893,3.9399 h 39.93197 c 2.17836,-0.007 3.93337,-1.76178 3.9399,-3.9399 v -37.83505 c -0.007,-2.17836 -1.76154,-3.93337 -3.9399,-3.94013 z"
   id="path4" /><path
   style="fill:#513720;stroke-width:0.241637"
   d="m 177.64766,192.26318 h -39.93222 c -2.17836,0.007 -3.93337,1.76177 -3.9399,3.94013 v 37.83505 c 0.007,2.17836 1.76154,3.93337 3.9399,3.9399 h 39.93222 c 2.17836,-0.007 3.93337,-1.76178 3.93989,-3.9399 v -37.83505 c -0.006,-2.17836 -1.76153,-3.93337 -3.93989,-3.94013 z"
   id="path5" /><path
   style="fill:#d8a473;stroke-width:0.241637"
   d="m 178.01108,195.83989 c -0.10149,-0.0988 -0.22255,-0.15272 -0.36318,-0.1532 h -39.93222 c -0.14063,0 -0.26169,0.0544 -0.36318,0.1532 c -0.0991,0.10149 -0.15272,0.22255 -0.1532,0.36342 v 37.83505 c 0,0.14064 0.0541,0.2617 0.1532,0.36318 c 0.10149,0.0991 0.2223,0.15272 0.36318,0.1532 h 39.93222 c 0.14087,0 0.26193,-0.0541 0.36318,-0.1532 c 0.0991,-0.10148 0.15271,-0.2223 0.1532,-0.36318 v -37.83505 c 0,-0.14087 -0.0544,-0.26193 -0.1532,-0.36342 z"
   id="path6" /><path
   id="path11"
   style="fill:#e2af79;stroke-width:0.241637"
   d="M 33.304688 0 C 14.361202 3.1737208 0 19.527903 0 39.400391 L 0 70.103516 C 2.2426317 73.223289 4.6550231 76.221333 7.2226562 79.085938 C 18.084957 91.204508 31.46593 101.17075 45.919922 108.60156 C 68.189416 120.05008 93.252953 126.0912 118.20703 127.21094 C 132.92803 127.87158 147.72958 126.79287 162.22852 124.09766 L 162.22852 86.341797 C 162.22852 85.827357 162.64937 85.40625 163.16406 85.40625 L 240.0957 85.40625 C 240.61015 85.40625 241.03125 85.827357 241.03125 86.341797 L 241.03125 90.308594 C 245.97636 86.686937 250.74202 82.817479 255.29688 78.703125 C 255.53391 78.489277 255.76416 78.268274 256 78.052734 L 256 39.400391 C 256 19.527671 241.63717 3.1734496 222.69336 0 L 147.85547 0 L 147.85547 69.558594 L 85.957031 69.558594 L 85.957031 0 L 33.304688 0 z " /><path
   style="fill:#d8a473;stroke-width:0.241637"
   d="m 64.262116,195.83989 c -0.101488,-0.0988 -0.222548,-0.15272 -0.363181,-0.1532 h -39.931979 c -0.140874,0 -0.261935,0.0544 -0.36318,0.1532 c -0.09907,0.10149 -0.152715,0.22255 -0.153198,0.36342 v 37.83505 c 4.83e-4,0.14064 0.05437,0.2617 0.153198,0.36318 c 0.101487,0.0991 0.222547,0.15272 0.36318,0.1532 h 39.931979 c 0.140874,0 0.261935,-0.0541 0.363181,-0.1532 c 0.09907,-0.10148 0.152714,-0.2223 0.153197,-0.36318 v -37.83505 c -4.83e-4,-0.14087 -0.05413,-0.26193 -0.153197,-0.36342 z"
   id="path12" /><path
   style="fill:#d8a473;stroke-width:0.241637"
   d="m 121.13647,195.83989 c -0.10148,-0.0988 -0.2223,-0.15272 -0.36318,-0.1532 h -39.93197 c -0.140875,0 -0.261935,0.0544 -0.363181,0.1532 c -0.09907,0.10149 -0.152715,0.22255 -0.153198,0.36342 v 37.83505 c 4.83e-4,0.14064 0.05413,0.2617 0.153198,0.36318 c 0.101488,0.0991 0.222306,0.15272 0.363181,0.1532 h 39.93197 c 0.14088,0 0.26194,-0.0541 0.36318,-0.1532 c 0.0991,-0.10148 0.15272,-0.2223 0.1532,-0.36318 v -37.83505 c 0,-0.14087 -0.0541,-0.26193 -0.1532,-0.36342 z"
   id="path13" /><rect
   x="85.956841"
   y="1.3573243e-05"
   style="fill:#f0cfb4;stroke-width:0.241637"
   width="61.899204"
   height="69.557892"
   id="rect13" /><rect
   x="84.023193"
   y="227.61249"
   style="fill:#513720;stroke-width:0.241637"
   width="33.568226"
   height="3.1917841"
   id="rect14" /><polygon
   style="fill:#513720"
   points="1013.593,1796.766 1013.593,1870.723 1028.623,1870.723 1028.623,1796.766 1041.946,1796.766 1021.108,1756.627 1000.27,1796.766 "
   id="polygon14"
   transform="matrix(0.24163709,0,0,0.24163709,-139.69385,-226.29455)" /><polygon
   style="fill:#513720"
   points="963.718,1796.766 963.718,1870.723 978.748,1870.723 978.748,1796.766 992.071,1796.766 971.233,1756.627 950.395,1796.766 "
   id="polygon15"
   transform="matrix(0.24163709,0,0,0.24163709,-139.69385,-226.29455)" /><path
   style="fill:#513720;stroke-width:0.241637"
   d="m 43.932946,200.756 c -15.263007,0 -17.336978,11.11554 -17.336978,11.11554 c 5.723657,-4.56235 9.373586,0 9.373586,0 c 3.214981,-2.31246 5.736464,-1.48002 7.023182,-0.71041 v 16.6372 c -4.84e-4,0.25227 -0.217715,0.46974 -0.469985,0.47022 h -2.073729 c -0.252269,0 -0.469501,-0.21771 -0.470226,-0.47022 v -3.31792 c 0,-0.51928 -0.420932,-0.94021 -0.939968,-0.94021 c -0.519037,0 -0.94021,0.42093 -0.94021,0.94021 v 3.31792 c 0.0034,1.29904 1.051363,2.34678 2.350404,2.3504 h 2.073729 c 1.299041,-0.004 2.34678,-1.05136 2.350404,-2.3504 v -16.6372 c 1.286718,-0.76986 3.808201,-1.60205 7.023424,0.71041 c 0,0 3.649687,-4.56235 9.373344,0 c 0,0 -2.073729,-11.11554 -17.336977,-11.11554 z"
   id="path15" /><path
   style="fill:#513720;stroke-width:0.241637"
   d="m 152.62541,212.75883 c 0,2.34388 1.79102,4.28882 4.07207,4.5365 v 10.85627 l -4.07207,3.31115 h 5.05626 h 5.0565 l -4.07183,-3.31115 v -10.85627 c 2.28081,-0.24768 4.07183,-2.19262 4.07183,-4.5365 v -14.58714 h -10.11276 z"
   id="path16" /><path
   style="fill:#e8e7e7;stroke-width:0.241637"
   d="m 163.16399,141.31687 h 76.93193 c 0.51445,0 0.93562,-0.42094 0.93562,-0.93538 v -50.072764 v -3.96672 c 0,-0.51444 -0.42093,-0.93538 -0.93562,-0.93538 h -76.93193 c -0.51445,0 -0.93562,0.42094 -0.93562,0.93538 v 37.755804 v 16.28344 c 0,0.51468 0.42093,0.93562 0.93562,0.93562 z"
   id="path17" />











</svg>
